<svg id="Capa_1" data-name="Capa 1" xmlns="http://www.w3.org/2000/svg" viewBox="0 0 986 408"><defs><style>.cls-1{fill:none;}.cls-1,.cls-4,.cls-5{fill-rule:evenodd;}.cls-2{fill:#fff;}.cls-3{fill:#e6e6e6;}.cls-4,.cls-5{fill:#f9a826;}.cls-4{fill-opacity:0.4;}.cls-5{fill-opacity:0.41;}</style></defs><title>logo</title><path class="cls-1" d="M223.56,616H22V409.21l41.08,24.65c10.68,6.41,24.15,14.49,39.67,23.44A201.56,201.56,0,0,0,223.56,616Z" transform="translate(-22 -224)"/><path class="cls-1" d="M1008,586.56V616H859.11A33.19,33.19,0,0,0,864,598.61V462.77c42.6,26.33,79.46,61.78,102.92,84.07Z" transform="translate(-22 -224)"/><path class="cls-2" d="M302.35,623A192.27,192.27,0,0,1,111.67,456.12,195.36,195.36,0,0,1,110,430.65v-5.3C110,319.29,196.29,233,302.35,233h360.3A192.24,192.24,0,0,1,855,425.35V598.61A24.39,24.39,0,0,1,830.61,623Z" transform="translate(-22 -224)"/><path class="cls-3" d="M662.65,242A183.25,183.25,0,0,1,846,425.35V598.61A15.39,15.39,0,0,1,830.61,614H302.35A183.24,183.24,0,0,1,120.6,455a186.4,186.4,0,0,1-1.6-24.3v-5.3A183.34,183.34,0,0,1,302.35,242h360.3m0-18H302.35C191.15,224,101,314.15,101,425.35v5.3a203.69,203.69,0,0,0,1.75,26.65,199.69,199.69,0,0,0,18.75,62A201.15,201.15,0,0,0,302.35,632H830.61A33.4,33.4,0,0,0,864,598.61V425.35A201.24,201.24,0,0,0,662.65,224Z" transform="translate(-22 -224)"/><path class="cls-4" d="M864,462.77V598.61A33.19,33.19,0,0,1,859.11,616H223.56A201.56,201.56,0,0,1,102.75,457.3c44.16,25.51,105,58.17,165.75,80,82.17,29.44,164.33,39,246.5,4.79S679.33,428.39,761.5,428.39C796.74,428.39,832,443,864,462.77Z" transform="translate(-22 -224)"/><path class="cls-1" d="M1007.34,286V616H859.11A33.19,33.19,0,0,0,864,598.61V425.35A200.45,200.45,0,0,0,841.59,333c51.67-13.6,97-27,124.59-35Z" transform="translate(-22 -224)"/><path class="cls-1" d="M223.56,616H23.49V506.57l41.17,5.13c14.47,2.41,34,5.45,56.84,7.56A202.07,202.07,0,0,0,223.56,616Z" transform="translate(-22 -224)"/><path class="cls-5" d="M864,425.35V598.61A33.19,33.19,0,0,1,859.11,616H223.56A202.07,202.07,0,0,1,121.5,519.26c42.05,3.89,95.12,4.64,147.61-7.56,82.33-18.81,164.66-66.68,247-97.46,81-30.78,163.29-42.75,245.62-61.56,27.24-6.22,54.33-13,79.87-19.73A200.45,200.45,0,0,1,864,425.35Z" transform="translate(-22 -224)"/><path class="cls-3" d="M662.65,242A183.25,183.25,0,0,1,846,425.35V598.61A15.39,15.39,0,0,1,830.61,614H302.35A183.24,183.24,0,0,1,120.6,455a186.4,186.4,0,0,1-1.6-24.3v-5.3A183.34,183.34,0,0,1,302.35,242h360.3m0-18H302.35C191.15,224,101,314.15,101,425.35v5.3a203.69,203.69,0,0,0,1.75,26.65,199.69,199.69,0,0,0,18.75,62A201.15,201.15,0,0,0,302.35,632H830.61A33.4,33.4,0,0,0,864,598.61V425.35A201.24,201.24,0,0,0,662.65,224Z" transform="translate(-22 -224)"/></svg>